<svg xmlns="http://www.w3.org/2000/svg" xmlns:xlink="http://www.w3.org/1999/xlink" version="1.1" x="0px" y="0px" style="enable-background:new 0 0 595.276 841.89;" xml:space="preserve" viewBox="24.71 169.46 594.29 471.72"><style type="text/css">	.st0{display:none;}	.st1{fill:#2D2A6B;}	.st2{fill:none;}	.st3{fill:url(#SVGID_1_);}	.st4{fill:#F79258;}	.st5{fill:#201A4A;}	.st6{fill:#241F48;}	.st7{fill:#2B2767;}	.st8{fill:url(#SVGID_00000162322479156055251450000013532264421030085257_);}	.st9{fill:url(#SVGID_00000095312231252419448730000000422327168081290406_);}	.st10{fill:url(#SVGID_00000060712948242814315160000015512984860873205652_);}	.st11{fill:url(#SVGID_00000099621570117252028910000004319343284310384268_);}</style><g id="Calque_1" className="st0">			<image style="display:inline;overflow:visible;" width="336" height="214" xlink:href="PHOTO-2021-09-28-15-10-50.jpg" transform="matrix(1 0 0 1 283 169.4563)">	</image></g><g id="Calque_2">	<g>		<path className="st1" d="M28.12,557.497h4.127v16.514H28.12V557.497z"></path>		<path className="st1" d="M67.87,557.497h4.23l4.763,8.213l1.805,3.628h0.112c-0.194-1.746-0.527-4.06-0.527-6.006v-5.834h3.932v16.514    h-4.23l-4.762-8.235l-1.806-3.607h-0.112c0.194,1.822,0.527,4.034,0.527,5.981v5.86H67.87V557.497z"></path>		<path className="st1" d="M119.292,557.497h11.521v3.13h-7.394v3.829h6.317v3.131h-6.317v6.423h-4.127V557.497z"></path>		<path className="st1" d="M166.534,565.683c0-5.396,3.368-8.49,8.291-8.49c4.924,0,8.292,3.115,8.292,8.49    c0,5.395-3.368,8.633-8.292,8.633C169.901,574.315,166.534,571.078,166.534,565.683z M178.886,565.683    c0-3.312-1.571-5.266-4.062-5.266c-2.491,0-4.061,1.955-4.061,5.266c0,3.311,1.57,5.409,4.061,5.409    C177.315,571.091,178.886,568.993,178.886,565.683z"></path>		<path className="st1" d="M216.922,557.497h6.574c3.873,0,7.046,1.216,7.046,5.142c0,3.795-3.174,5.429-7.046,5.429h-2.447v5.943    h-4.127V557.497z M223.159,565.103c2.171,0,3.338-0.84,3.338-2.464c0-1.633-1.167-2.178-3.338-2.178h-2.111v4.642H223.159z     M222.741,567.084l2.856-2.389l5.826,9.316h-4.619L222.741,567.084z"></path>		<path className="st1" d="M271.137,557.497h4.502l2.963,7.337c0.365,0.975,0.685,2.033,1.05,3.049h0.113    c0.365-1.016,0.675-2.074,1.04-3.049l2.87-7.337h4.503v16.514h-3.759v-6.06c0-1.61,0.333-4.013,0.528-5.611h-0.113l-1.497,3.908    l-2.581,6.326h-2.291l-2.586-6.326l-1.456-3.908h-0.113c0.195,1.598,0.528,4,0.528,5.611v6.06h-3.702V557.497z"></path>		<path className="st1" d="M329.549,557.497h4.938l5.734,16.514h-4.369l-2.388-8.364c-0.507-1.651-0.994-3.604-1.483-5.327h-0.112    c-0.441,1.744-0.929,3.675-1.437,5.327l-2.398,8.364h-4.219L329.549,557.497z M327.595,567.175h8.784v2.901h-8.784V567.175z"></path>		<path className="st1" d="M378.616,560.627h-5.026v-3.13h14.178v3.13h-5.026v13.383h-4.127V560.627z"></path>		<path className="st1" d="M421.395,557.497h4.127v16.514h-4.127V557.497z"></path>		<path className="st1" d="M459.762,563.534c0-5.396,3.368-8.49,8.292-8.49c4.923,0,8.291,3.115,8.291,8.49    c0,5.395-3.368,8.633-8.291,8.633C463.129,572.166,459.762,568.929,459.762,563.534z M472.114,563.534    c0-3.312-1.571-5.266-4.061-5.266c-2.491,0-4.062,1.955-4.062,5.266c0,3.519,1.571,5.584,4.062,5.584    C470.543,569.118,472.114,567.053,472.114,563.534z M466.042,571.736l4.193-0.375c0.692,1.55,2.567,2.121,4.304,2.121    c0.794,0,1.493-0.122,2.033-0.286l0.732,2.723c-0.68,0.31-1.82,0.545-3.236,0.545    C470.053,576.464,467.288,574.458,466.042,571.736z"></path>		<path className="st1" d="M513.447,566.206v-8.861h4.127v9.243c0,3.234,1.127,4.352,3.169,4.352c2.053,0,3.235-1.118,3.235-4.352    v-9.243h3.979v8.861c0,5.544-2.491,7.958-7.214,7.958C516.021,574.163,513.447,571.75,513.447,566.206z"></path>		<path className="st1" d="M563.214,557.497h11.438v3.13h-7.311v3.316h6.224v3.131h-6.224v3.804h7.592v3.131h-11.719V557.497z"></path>		<rect x="84.429" y="169.569" className="st2" width="6.072" height="0"></rect>		<linearGradient id="SVGID_1_" gradientUnits="userSpaceOnUse" x1="370.4344" y1="281.6571" x2="408.5173" y2="251.9859">			<stop offset="0" style="stop-color:#EE8D2B"></stop>			<stop offset="0.9985" style="stop-color:#DB5215"></stop>		</linearGradient>		<path className="st3" d="M366.283,283.216L366.283,283.216c4.744,6.767,14.162,8.423,20.929,3.68l18.255-12.796    c6.767-4.743,8.423-14.161,3.68-20.929l0,0c-4.743-6.767-14.161-8.423-20.929-3.68l-18.255,12.796    C363.195,267.03,361.54,276.448,366.283,283.216z"></path>		<g>			<g>				<path className="st4" d="M361.353,633.389c-1.882,0.736-4.286,1.104-7.213,1.104c-0.359,0-0.7-0.17-1.022-0.509      c-0.322-0.338-0.483-0.688-0.483-1.047v-3.65c0-1.196,0.076-2.902,0.227-5.118c0.167-2.392,0.259-4.123,0.275-5.193      c-0.008-0.77,0.038-1.915,0.139-3.438c0.058-0.418,0.196-0.693,0.413-0.827c1.138-0.352,2.43-0.527,3.877-0.527      c1.472,0,2.885,0.502,4.239,1.506c1.564,1.153,2.346,2.579,2.346,4.277c0,2.149-0.836,3.843-2.509,5.08      c1.255,0.535,2.193,1.129,2.816,1.781s0.935,1.363,0.935,2.133c0,1.012-0.548,1.99-1.644,2.936      C362.988,632.566,362.189,633.063,361.353,633.389z M358.969,626.791l-1.329-0.214c-0.109,0-0.274,0.007-0.496,0.019      c-0.222,0.013-0.391,0.02-0.508,0.02c-0.451,0-0.933-0.038-1.442-0.113c-0.051,1.054-0.075,1.995-0.075,2.822v2.597      c2.19-0.075,3.977-0.384,5.356-0.928c0.585-0.226,1.146-0.577,1.681-1.054c0.51-0.435,0.766-0.761,0.766-0.979      c0-0.394-0.536-0.836-1.606-1.33C360.512,627.255,359.73,626.975,358.969,626.791z M357.565,616.743      c-0.912,0-1.552,0.029-1.92,0.087l-0.024,2.195l-0.251,4.854c1.188,0.101,1.822,0.146,1.906,0.139      c1.263-0.101,2.296-0.493,3.099-1.18c0.861-0.744,1.292-1.701,1.292-2.872c0-0.795-0.439-1.53-1.317-2.208      S358.543,616.743,357.565,616.743z"></path>				<path className="st4" d="M379.116,622.701l-4.341,9.383c-1.07,2.283-1.89,4.194-2.459,5.733l-0.827,2.434      c-0.218,0.602-0.595,0.902-1.129,0.902c-0.352,0-0.655-0.114-0.91-0.345c-0.255-0.229-0.382-0.517-0.382-0.859      c0-0.836,0.902-3.257,2.709-7.263l-4.491-8.644l-0.564-0.915c-0.226-0.385-0.338-0.707-0.338-0.966      c0-0.343,0.131-0.645,0.395-0.903s0.559-0.389,0.885-0.389c0.385,0,0.682,0.146,0.891,0.438c1.422,1.974,2.947,4.784,4.578,8.43      l1.856-4.327c0.669-1.497,1.313-2.785,1.933-3.864c0.268-0.468,0.618-0.702,1.054-0.702c0.343,0,0.646,0.121,0.909,0.363      c0.264,0.243,0.396,0.531,0.396,0.866C379.279,622.258,379.224,622.467,379.116,622.701z"></path>				<path className="st4" d="M418.517,634.267c-0.77,0-1.438-0.986-2.008-2.96c-0.217-0.753-0.489-2.07-0.815-3.951      c-0.853,0.117-1.969,0.326-3.349,0.627l-3.337,0.689c-0.418,1.096-1.134,2.697-2.146,4.805      c-0.268,0.469-0.631,0.702-1.091,0.702c-0.335,0-0.634-0.121-0.897-0.363c-0.263-0.242-0.395-0.544-0.395-0.903      c0-0.401,0.631-1.928,1.894-4.578c-0.142-0.218-0.213-0.469-0.213-0.753c0-0.678,0.409-1.112,1.229-1.305      c0.953-1.79,2.157-3.847,3.612-6.172c1.982-3.169,3.216-4.754,3.701-4.754c0.66,0,1.111,0.46,1.354,1.38l0.79,4.215l1.869,8.718      l0.715,1.982c0.243,0.677,0.364,1.129,0.364,1.354c0,0.359-0.13,0.661-0.389,0.903      C419.148,634.146,418.851,634.267,418.517,634.267z M414.088,619.929l-3.588,5.783c1.012-0.259,2.547-0.573,4.604-0.94      L414.088,619.929z"></path>				<path className="st4" d="M434.899,623.128l-1.831,1.719l-2.233,2.22l4.09,5.344c0.209,0.268,0.313,0.531,0.313,0.791      c0,0.325-0.125,0.614-0.376,0.865s-0.535,0.376-0.854,0.376c-0.317,0-0.606-0.154-0.865-0.464      c-0.77-0.895-2.124-2.617-4.064-5.168l-2.446,2.521c-0.493,0.443-1.213,1.133-2.157,2.069c-0.268,0.301-0.557,0.451-0.865,0.451      c-0.318,0-0.601-0.125-0.848-0.376c-0.246-0.251-0.369-0.539-0.369-0.865c0-0.26,0.104-0.522,0.313-0.79      c0.233-0.31,0.598-0.682,1.091-1.117c0.577-0.51,0.958-0.861,1.142-1.054l2.672-2.797l-1.644-2.371      c-0.66-0.945-1.237-1.635-1.73-2.069c-0.318-0.284-0.477-0.594-0.477-0.929c0-0.334,0.119-0.631,0.357-0.891      c0.238-0.259,0.512-0.389,0.821-0.389c0.493,0,1.237,0.644,2.233,1.932l2.17,2.998l2.458-2.258      c1.021-0.962,1.711-1.715,2.07-2.258c0.268-0.394,0.585-0.59,0.953-0.59c0.326,0,0.615,0.121,0.866,0.364      c0.25,0.242,0.376,0.522,0.376,0.84C436.066,621.694,435.677,622.325,434.899,623.128z"></path>				<path className="st4" d="M444.395,634.468c-1.89,0-3.42-0.473-4.591-1.418c-1.279-1.045-1.919-2.509-1.919-4.39      c0-2.175,0.526-3.998,1.58-5.47c1.146-1.605,2.676-2.408,4.591-2.408c1.389,0,2.521,0.234,3.399,0.702      c1.079,0.577,1.618,1.464,1.618,2.659c0,0.837-0.472,1.598-1.417,2.283c-0.418,0.301-1.305,0.77-2.659,1.405l-4.792,2.271      c0.468,0.694,1.052,1.217,1.75,1.567c0.698,0.352,1.512,0.527,2.439,0.527c0.577,0,1.255-0.108,2.032-0.326      c0.987-0.276,1.622-0.638,1.907-1.085c0.284-0.447,0.589-0.671,0.915-0.671c0.293,0,0.555,0.11,0.784,0.332      c0.23,0.222,0.345,0.479,0.345,0.771c0,0.929-0.748,1.727-2.245,2.396C446.854,634.184,445.608,634.468,444.395,634.468z       M444.056,623.04c-1.02,0-1.869,0.395-2.546,1.186c-0.678,0.79-1.184,1.979-1.518,3.568l3.851-1.831      c1.514-0.736,2.593-1.376,3.236-1.92C446.361,623.374,445.353,623.04,444.056,623.04z"></path>				<path className="st4" d="M464.165,622.815c-0.101,1.229-0.15,2.458-0.15,3.688c0,2.785,0.129,4.889,0.389,6.31      c0.017,0.117,0.025,0.214,0.025,0.289c0,0.334-0.117,0.61-0.352,0.828c-0.234,0.217-0.506,0.326-0.815,0.326      c-0.519,0-0.899-0.377-1.142-1.13c-0.602,0.443-1.228,0.778-1.875,1.004c-0.648,0.226-1.323,0.339-2.026,0.339      c-1.73,0-3.165-0.577-4.303-1.731c-1.171-1.179-1.756-2.692-1.756-4.541c0-2.232,0.592-4.022,1.775-5.369      c1.183-1.346,2.72-2.02,4.609-2.02c0.971,0,1.719,0.151,2.246,0.452l1.179,0.865c0.117-3.521,0.255-5.892,0.414-7.112      c0.108-0.744,0.489-1.116,1.142-1.116c0.761,0,1.142,0.405,1.142,1.217C464.667,616.275,464.499,618.842,464.165,622.815z       M458.596,623.141c-1.405,0-2.459,0.416-3.161,1.248c-0.703,0.832-1.054,2.084-1.054,3.757c0,1.079,0.382,2.007,1.147,2.785      c0.766,0.777,1.662,1.166,2.69,1.166c0.703,0,1.297-0.13,1.781-0.389c0.284-0.15,0.749-0.497,1.393-1.041      c0.126-0.108,0.247-0.238,0.364-0.389l-0.038-2.171l0.013-1.455l0.025-1.479c-0.318-0.678-0.74-1.186-1.268-1.524      C459.963,623.31,459.332,623.141,458.596,623.141z"></path>				<path className="st4" d="M470.663,628.196c0,0.502,0.015,1.253,0.044,2.252s0.044,1.75,0.044,2.252c0,0.368-0.113,0.669-0.339,0.903      c-0.226,0.233-0.522,0.351-0.891,0.351c-0.359,0-0.654-0.117-0.885-0.351c-0.229-0.234-0.345-0.535-0.345-0.903      c0-0.502-0.015-1.253-0.044-2.252s-0.044-1.75-0.044-2.252c0-0.786,0.042-1.767,0.126-2.941      c0.083-1.175,0.125-2.155,0.125-2.941c0-0.377,0.115-0.682,0.345-0.916c0.23-0.234,0.525-0.352,0.885-0.352      s0.654,0.117,0.885,0.352c0.229,0.234,0.345,0.539,0.345,0.916c0,0.786-0.042,1.767-0.126,2.941      C470.705,626.429,470.663,627.409,470.663,628.196z M470.098,618.01c-0.401,0-0.749-0.143-1.041-0.427      c-0.293-0.284-0.439-0.627-0.439-1.028s0.146-0.744,0.439-1.028c0.292-0.284,0.64-0.427,1.041-0.427s0.746,0.143,1.035,0.427      c0.288,0.284,0.433,0.627,0.433,1.028s-0.145,0.744-0.433,1.028C470.844,617.867,470.499,618.01,470.098,618.01z"></path>				<path className="st4" d="M483.37,624.232c-0.46,0-0.782-0.154-0.966-0.464c-0.126-0.218-0.234-0.669-0.326-1.354      c-0.627,0.158-1.593,0.451-2.897,0.878c-1.347,0.535-2.024,1.195-2.032,1.981c0.251,0.093,0.497,0.159,0.74,0.201      c1.923,0.343,3.354,0.815,4.29,1.417c1.362,0.879,2.045,2.149,2.045,3.813c0,1.363-0.59,2.393-1.77,3.086      c-0.979,0.568-2.216,0.854-3.713,0.854c-1.096,0-2.141-0.185-3.136-0.552c-1.288-0.469-1.932-1.121-1.932-1.957      c0-0.335,0.132-0.628,0.395-0.879c0.264-0.25,0.562-0.376,0.897-0.376c0.259,0,0.594,0.201,1.003,0.603      c0.201,0.192,0.652,0.351,1.355,0.477c0.56,0.101,1.032,0.15,1.417,0.15c0.702,0,1.321-0.084,1.856-0.251      c0.778-0.242,1.167-0.627,1.167-1.154c0-1.137-0.795-1.906-2.384-2.308l-1.305-0.289c-1.112-0.242-1.902-0.526-2.37-0.853      c-0.678-0.469-1.017-1.175-1.017-2.12c0-1.748,0.823-2.994,2.472-3.738c0.501-0.226,1.305-0.495,2.408-0.809      c1.104-0.314,1.895-0.579,2.371-0.797c0.343-0.15,0.715-0.226,1.116-0.226c0.359,0,0.654,0.117,0.884,0.351      c0.23,0.234,0.346,0.54,0.346,0.916c0,0.243,0.052,0.598,0.156,1.066s0.157,0.824,0.157,1.066c0,0.376-0.115,0.682-0.345,0.915      C484.024,624.115,483.729,624.232,483.37,624.232z"></path>				<path className="st4" d="M525.004,626.302c-0.519,2.567-1.608,4.618-3.268,6.152c-1.66,1.535-3.619,2.302-5.877,2.302      c-2.058,0-3.601-0.575-4.629-1.725c-1.029-1.149-1.543-2.874-1.543-5.175c0-2.165,0.512-4.396,1.536-6.692      c1.024-2.295,2.34-4.149,3.945-5.562c1.07-0.945,2.203-1.418,3.399-1.418c0.761,0,1.765,0.251,3.011,0.753      c1.522,0.602,2.283,1.267,2.283,1.994c0,0.343-0.126,0.648-0.376,0.916c-0.251,0.268-0.553,0.401-0.903,0.401      c-0.185,0-0.443-0.104-0.778-0.313c-1.279-0.778-2.358-1.167-3.236-1.167c-0.627,0-1.283,0.326-1.969,0.979      c-0.344,0.326-0.837,0.92-1.48,1.781c-1.932,2.56-2.897,5.336-2.897,8.329c0,1.573,0.242,2.672,0.728,3.3      c0.526,0.686,1.496,1.028,2.91,1.028c1.496,0,2.797-0.473,3.901-1.417c1.162-1.004,1.973-2.438,2.433-4.303      c-2.316,0.117-4.302,0.564-5.958,1.342c-0.192,0.092-0.381,0.138-0.564,0.138c-0.368,0-0.673-0.142-0.916-0.426      c-0.226-0.26-0.339-0.561-0.339-0.903c0-0.46,0.222-0.828,0.665-1.104c1.807-1.104,4.922-1.655,9.346-1.655      c0.359,0,0.66,0.121,0.903,0.363c0.242,0.243,0.363,0.548,0.363,0.916C525.694,625.679,525.464,626.068,525.004,626.302z"></path>				<path className="st4" d="M537.662,624.62c-0.059,1.046-0.477,1.568-1.254,1.568c-0.72,0-1.079-0.414-1.079-1.242      c0-0.158-0.013-0.451-0.038-0.878l-0.037-1.054c-1.321,0.159-2.38,0.531-3.174,1.116c-0.744,0.544-1.363,1.363-1.856,2.459      l0.025,6.874c0,0.845-0.414,1.268-1.242,1.268c-0.736,0-1.104-0.423-1.104-1.268v-8.806c0-0.276,0.011-0.69,0.032-1.242      c0.021-0.552,0.031-0.966,0.031-1.241c0-0.845,0.367-1.268,1.104-1.268c0.819,0,1.233,0.694,1.242,2.082      c1.605-1.547,3.387-2.32,5.344-2.32c0.677,0,1.184,0.255,1.518,0.766c0.335,0.51,0.502,1.279,0.502,2.308      C537.674,624.178,537.67,624.47,537.662,624.62z"></path>				<path className="st4" d="M544.949,634.631c-1.404,0-2.613-0.519-3.625-1.556c-1.129-1.154-1.723-2.705-1.781-4.654      c-0.05-1.89,0.427-3.554,1.431-4.992c1.17-1.697,2.801-2.547,4.892-2.547c1.673,0,2.939,0.766,3.801,2.296      c0.686,1.238,1.017,2.727,0.991,4.466c-0.025,1.856-0.51,3.441-1.455,4.754C548.131,633.887,546.713,634.631,544.949,634.631z       M545.702,623.429c-1.229-0.008-2.187,0.577-2.872,1.756c-0.544,0.945-0.815,2.024-0.815,3.236c0,1.213,0.33,2.158,0.99,2.835      c0.553,0.561,1.2,0.841,1.944,0.841c0.87,0,1.618-0.317,2.246-0.953c0.711-0.702,1.087-1.651,1.129-2.848      C548.441,625.06,547.567,623.438,545.702,623.429z"></path>				<path className="st4" d="M563.992,626.565c0,0.603,0.004,1.506,0.013,2.71c0.008,1.204,0.013,2.107,0.013,2.71      c0,0.184,0.015,0.464,0.044,0.84c0.029,0.377,0.044,0.657,0.044,0.841c0,0.359-0.121,0.654-0.364,0.884      c-0.242,0.23-0.539,0.346-0.891,0.346c-0.644,0-1.054-0.397-1.229-1.192c-1.045,0.544-2.249,0.815-3.612,0.815      c-1.096,0-2.003-0.242-2.722-0.728c-0.795-0.535-1.268-1.317-1.418-2.346c-0.326-2.216-0.489-4.189-0.489-5.921      c0-1.146,0.126-2.45,0.376-3.913c0.117-0.729,0.515-1.092,1.192-1.092c0.359,0,0.66,0.115,0.903,0.345      c0.242,0.23,0.363,0.525,0.363,0.885c0,0.385-0.061,0.999-0.182,1.844s-0.182,1.488-0.182,1.932      c0,1.396,0.046,2.593,0.138,3.588s0.229,1.794,0.414,2.396c0.275,0.151,0.548,0.266,0.815,0.346      c0.268,0.079,0.53,0.119,0.79,0.119c1.12,0,2.304-0.18,3.55-0.54l-0.013-2.546l-0.024-2.434c0-1.807,0.079-3.375,0.238-4.704      c0.092-0.77,0.497-1.154,1.217-1.154c0.359,0,0.66,0.117,0.903,0.352c0.242,0.234,0.354,0.526,0.338,0.878L563.992,626.565z"></path>				<path className="st4" d="M572.447,634.33c-0.837,0-1.757-0.134-2.76-0.401l-0.025,5.996c0,0.367-0.115,0.669-0.345,0.902      c-0.23,0.234-0.525,0.352-0.885,0.352s-0.654-0.117-0.884-0.352c-0.23-0.233-0.346-0.535-0.346-0.902l0.038-5.019v-5.005      c-0.025-1.831-0.088-3.5-0.188-5.005l-0.188-2.547c0-0.594,0.108-1.095,0.326-1.505c0.25-0.493,0.614-0.74,1.091-0.74      c0.326,0,0.6,0.115,0.821,0.345c0.222,0.23,0.333,0.513,0.333,0.847c0,0.075-0.013,0.214-0.038,0.414      c-0.042,0.26-0.071,0.498-0.088,0.715c0.72-0.493,1.414-0.863,2.083-1.109c0.669-0.247,1.309-0.37,1.919-0.37      c1.714,0,2.969,0.761,3.764,2.283c0.627,1.204,0.94,2.797,0.94,4.779c0,1.806-0.485,3.295-1.455,4.465      C575.533,633.711,574.161,634.33,572.447,634.33z M573.312,623.454c-0.77,0-1.464,0.171-2.082,0.514      c-0.443,0.243-1.004,0.687-1.682,1.33c0.109,1.898,0.163,3.893,0.163,5.983c0.912,0.352,1.823,0.527,2.735,0.527      c1.045,0,1.844-0.39,2.396-1.167c0.477-0.678,0.715-1.556,0.715-2.634c0-1.522-0.186-2.662-0.558-3.419      S574.065,623.454,573.312,623.454z"></path>			</g>		</g>		<rect x="30.183" y="625.673" className="st4" width="292.526" height="2.701"></rect>		<path className="st5" d="M134.754,428.767c4.861,1.882,3.92,10.064-1.013,11.749c-9.135,3.12-25.621,0.772-35.414,12.131    c-10.003,11.603-9.45,30.901-10.833,39.619c-5.31,33.46-36.102,42.161-49.466,41.499c-18.699-0.927-13.818-13.104-8.585-12.766    c3.625,0.234,29.418,0.287,39.675-17.727c5.379-9.447,5.908-40.013,12.212-52.169C93.13,428.351,131.034,427.327,134.754,428.767z    "></path>		<g>			<path className="st6" d="M201.443,428.465c-50.175,2.466-51.766,53.652-51.766,53.652c2.026,40.232,34.173,53.568,55.55,53.745     c21.27,0.176,36.945-14.188,30.39-19.501c-7.715-6.253-11.844,4.548-30.39,4.3c-38.333-0.513-40.183-32.037-40.183-32.037     l92.859-0.991C257.903,487.632,259.184,425.627,201.443,428.465z M165.045,475.841c0.675-3.377,5.403-32.078,37.818-34.442     c32.416-2.364,42.545,33.792,42.545,33.792L165.045,475.841z"></path>		</g>		<path className="st5" d="M296.089,454.357c-2.983,6.667-4.322,13.953-4.322,21.256l-1.985,54.505c0,0,1.985,5.728,7.725,5.728    s6.416-5.74,6.416-5.74l1.511-55.904c0.134-4.954,1.366-9.837,3.747-14.185c2.858-5.219,7.371-11.812,13.314-15.34    c10.805-6.416,18.909-4.299,26.338-4.734c7.429-0.435,8.779-11.735,0-13.086s-26.957-0.751-37.621,8.366    C304.101,441.301,299.48,446.779,296.089,454.357z"></path>		<path className="st5" d="M379.126,431.51c0.385-8.042,12.382-7.901,12.57,0.148c0.28,11.964-0.344,43.334,0.651,51.091    c0.881,6.862,0.252,13.587,2.455,19.58c7.422,20.189,42.993,14.986,42.993,23.953c0,9.581-7.208,7.517-13.921,6.751    c-22.135-2.524-43.875-15.05-44.411-37.322C379.174,483.716,378.396,446.736,379.126,431.51z"></path>		<circle className="st5" cx="384.866" cy="374.402" r="8.172"></circle>		<path className="st2" d="M245.633,301.805"></path>		<path className="st7" d="M288.021,369.789c-4.93-13.916,9.105-43.538,9.105-43.538c4.905-4.823,13.111-16.925,14.084-19.069    c9.74-22.706-12.482-30.217-17.758-29.877c-10.76,9.018-24.816,26.169-29.46,48.954c-15.109,36.587,32.437,62.32,49.651,65.21    C308.639,386.757,291.228,378.839,288.021,369.789z"></path>		<path className="st2" d="M330.229,395.681c-0.234-0.041-0.452-0.087-0.684-0.129C329.988,395.638,330.229,395.681,330.229,395.681z"></path>		<path className="st2" d="M275.112,374.814c3.14,1.96,6.362,3.759,9.607,5.405c-2.648-1.384-6.1-3.329-9.965-5.819    C274.877,374.537,274.987,374.679,275.112,374.814z"></path>					<linearGradient id="SVGID_00000042722479061962465350000014318523996252295604_" gradientUnits="userSpaceOnUse" x1="302.8503" y1="372.9292" x2="357.8148" y2="310.6479">			<stop offset="0.1928" style="stop-color:#D23986"></stop>			<stop offset="0.3372" style="stop-color:#D5417E"></stop>			<stop offset="0.5658" style="stop-color:#DC5667"></stop>			<stop offset="0.8485" style="stop-color:#E77842"></stop>			<stop offset="1" style="stop-color:#EE8D2B"></stop>		</linearGradient>		<path style="fill:url(#SVGID_00000042722479061962465350000014318523996252295604_);" d="M340.769,282.608    c-15.195,10.468-52.296,48.606-57.349,66.126c-5.583,19.355,9.126,38.578,32.382,43.458c6.881,1.961,11.979,3.017,13.744,3.36    c0.232,0.042,0.449,0.088,0.684,0.129c0,0-27.116-8.369-22.623-26.338c6.416-25.662,28.436-43.852,51.735-63.774    C371.533,295.144,355.964,272.141,340.769,282.608z"></path>		<path className="st2" d="M329.546,395.552c-1.765-0.342-6.863-1.399-13.744-3.36C319.834,393.499,324.391,394.629,329.546,395.552z"></path>					<linearGradient id="SVGID_00000008138559456214931590000012904881153092511391_" gradientUnits="userSpaceOnUse" x1="320.7076" y1="188.0412" x2="334.1147" y2="179.6189">			<stop offset="0.6557" style="stop-color:#EE8D2B"></stop>			<stop offset="0.66" style="stop-color:#ED8B2A"></stop>			<stop offset="0.7349" style="stop-color:#E67321"></stop>			<stop offset="0.8139" style="stop-color:#E0621B"></stop>			<stop offset="0.8987" style="stop-color:#DD5717"></stop>			<stop offset="1" style="stop-color:#DC5416"></stop>		</linearGradient>		<path style="fill:url(#SVGID_00000008138559456214931590000012904881153092511391_);" d="M334.448,181.197    c-1.03-2.601-5.308-3.346-9.556-1.665s-6.857,5.153-5.828,7.754s5.308,3.346,9.556,1.665S335.478,183.798,334.448,181.197z"></path>		<g>			<path className="st2" d="M245.633,301.805"></path>			<path className="st7" d="M254.51,353.349c-7.601-9.798-2.298-58.539-2.768-66.964c-0.366-6.556-2.561-11.579-5.936-16.284     c-1.064-1.483-3.238-2.323-4.318-0.851c-6.104,8.318-8.544,29.745-8.106,33.734c0.013,0.115,0.871,9.764,2.022,16.115     c1.982,10.94,12.497,28.817,19.699,36.724c0.948,1.02,1.906,2.011,2.874,2.972C256.845,357.053,255.908,355.151,254.51,353.349z"></path>							<linearGradient id="SVGID_00000061453581158625236980000013888062917250843326_" gradientUnits="userSpaceOnUse" x1="271.3376" y1="332.029" x2="354.6336" y2="253.7113">				<stop offset="0.1928" style="stop-color:#D23986"></stop>				<stop offset="0.3372" style="stop-color:#D5417E"></stop>				<stop offset="0.5658" style="stop-color:#DC5667"></stop>				<stop offset="0.8485" style="stop-color:#E77842"></stop>				<stop offset="1" style="stop-color:#EE8D2B"></stop>			</linearGradient>			<path style="fill:url(#SVGID_00000061453581158625236980000013888062917250843326_);" d="M256.901,357.661     c0.038,0.059,0.919,1.252,0.958,1.31c10.066,10.205,22.789,18.189,35.207,24.389c-39.956-33.624-29.856-70.067-7.708-96.795     c-0.024,0.014-0.046,0.025-0.07,0.039c0.024-0.014,0.046-0.025,0.07-0.039c2.356-2.843,4.881-5.606,7.567-8.26     c10.594-10.467,40.742-32.906,54.756-44.787c3.872-3.283,7.473-7.613,7.473-12.963c0-3.2-0.514-5.319-1.805-7.342     c-1.825-2.86-4.979-4.604-8.352-4.976c0,0,0,0,0,0c-5.092,0-11.358,2.53-15.729,5.065c-25.325,14.688-42.056,31.717-56.56,46.432     c-33.553,34.042-26.436,81.697-18.433,93.614"></path>		</g>		<path className="st5" d="M519.953,425.985c-13.536,0.507-47.478,6.475-48.625,41.324c-1.217,36.974-3.921,65.782,6.694,65.815    c18.403,0.058-17.655-91.273,42.672-90.966c60.327-0.308,26.154,91.023,44.472,90.966c10.615-0.033,6.111-28.841,4.894-65.815    c-1.147-34.849-35.556-40.817-49.092-41.324"></path>					<linearGradient id="SVGID_00000015344197017561246410000011373008157632097155_" gradientUnits="userSpaceOnUse" x1="234.9908" y1="265.9613" x2="279.8114" y2="225.0863" gradientTransform="matrix(0.9946 0.1039 -0.1039 0.9946 39.0019 -25.0753)">			<stop offset="0.1928" style="stop-color:#D23986"></stop>			<stop offset="0.3993" style="stop-color:#D33C83"></stop>			<stop offset="0.5597" style="stop-color:#D64579"></stop>			<stop offset="0.7046" style="stop-color:#DB5469"></stop>			<stop offset="0.8403" style="stop-color:#E26A51"></stop>			<stop offset="0.9685" style="stop-color:#EB8534"></stop>			<stop offset="1" style="stop-color:#EE8D2B"></stop>		</linearGradient>		<path style="fill:url(#SVGID_00000015344197017561246410000011373008157632097155_);" d="M280.095,221.458    c21.497-17.652,17.285-28.123,0.314-14.651c-2.267,1.8-52.939,37.403-47.824,88.992c0.549,5.538,0.143,4.794,0.797,7.755    C234.643,280.832,242.958,251.952,280.095,221.458z"></path>	</g></g></svg>