<?xml version='1.0' encoding='iso-8859-1'?>
<svg version="1.1" xmlns="http://www.w3.org/2000/svg" viewBox="0 0 511 511" xmlns:xlink="http://www.w3.org/1999/xlink" enable-background="new 0 0 511 511">
  <g>
    <path d="m359.5,0h-208c-21.781,0-39.5,17.72-39.5,39.5v432c0,21.78 17.72,39.5 39.5,39.5h208c21.78,0 39.5-17.72 39.5-39.5v-432c0-21.78-17.72-39.5-39.5-39.5zm-232.5,79h257v353h-257v-353zm24.5-64h208c13.509,0 24.5,10.991 24.5,24.5v24.5h-257v-24.5c0-13.509 10.99-24.5 24.5-24.5zm208,481h-208c-13.509,0-24.5-10.991-24.5-24.5v-24.5h257v24.5c0,13.509-10.991,24.5-24.5,24.5z"/>
    <path d="m239.5,47h32c4.142,0 7.5-3.358 7.5-7.5s-3.358-7.5-7.5-7.5h-32c-4.142,0-7.5,3.358-7.5,7.5s3.358,7.5 7.5,7.5z"/>
    <path d="m215.499,47c1.98,0 3.91-0.8 5.3-2.2 1.4-1.39 2.2-3.32 2.2-5.3 0-1.97-0.8-3.91-2.2-5.3-1.39-1.4-3.32-2.2-5.3-2.2-1.97,0-3.91,0.8-5.3,2.2-1.4,1.39-2.2,3.33-2.2,5.3 0,1.98 0.8,3.91 2.2,5.3 1.39,1.399 3.33,2.2 5.3,2.2z"/>
    <path d="m255.5,456c-8.547,0-15.5,6.953-15.5,15.5s6.953,15.5 15.5,15.5 15.5-6.953 15.5-15.5-6.953-15.5-15.5-15.5zm0,16c-0.276,0-0.5-0.224-0.5-0.5s0.224-0.5 0.5-0.5 0.5,0.224 0.5,0.5-0.224,0.5-0.5,0.5z"/>
    <path d="m359.5,96h-208c-4.142,0-7.5,3.358-7.5,7.5v48c0,4.142 3.358,7.5 7.5,7.5h208c4.142,0 7.5-3.358 7.5-7.5v-48c0-4.142-3.358-7.5-7.5-7.5zm-7.5,48h-193v-33h193v33z"/>
    <path d="m359.5,184h-208c-4.142,0-7.5,3.358-7.5,7.5s3.358,7.5 7.5,7.5h208c4.142,0 7.5-3.358 7.5-7.5s-3.358-7.5-7.5-7.5z"/>
    <path d="m335.5,231c4.142,0 7.5-3.358 7.5-7.5s-3.358-7.5-7.5-7.5h-160c-4.142,0-7.5,3.358-7.5,7.5s3.358,7.5 7.5,7.5h160z"/>
    <path d="m359.5,264h-144c-4.142,0-7.5,3.358-7.5,7.5s3.358,7.5 7.5,7.5h144c4.142,0 7.5-3.358 7.5-7.5s-3.358-7.5-7.5-7.5z"/>
    <path d="m167.5,248c-12.958,0-23.5,10.542-23.5,23.5s10.542,23.5 23.5,23.5 23.5-10.542 23.5-23.5-10.542-23.5-23.5-23.5zm0,32c-4.687,0-8.5-3.813-8.5-8.5s3.813-8.5 8.5-8.5 8.5,3.813 8.5,8.5-3.813,8.5-8.5,8.5z"/>
    <path d="m359.5,320h-144c-4.142,0-7.5,3.358-7.5,7.5s3.358,7.5 7.5,7.5h144c4.142,0 7.5-3.358 7.5-7.5s-3.358-7.5-7.5-7.5z"/>
    <path d="m167.5,304c-12.958,0-23.5,10.542-23.5,23.5s10.542,23.5 23.5,23.5 23.5-10.542 23.5-23.5-10.542-23.5-23.5-23.5zm0,32c-4.687,0-8.5-3.813-8.5-8.5s3.813-8.5 8.5-8.5 8.5,3.813 8.5,8.5-3.813,8.5-8.5,8.5z"/>
    <path d="m359.5,376h-144c-4.142,0-7.5,3.358-7.5,7.5s3.358,7.5 7.5,7.5h144c4.142,0 7.5-3.358 7.5-7.5s-3.358-7.5-7.5-7.5z"/>
    <path d="m167.5,360c-12.958,0-23.5,10.542-23.5,23.5s10.542,23.5 23.5,23.5 23.5-10.542 23.5-23.5-10.542-23.5-23.5-23.5zm0,32c-4.687,0-8.5-3.813-8.5-8.5s3.813-8.5 8.5-8.5 8.5,3.813 8.5,8.5-3.813,8.5-8.5,8.5z"/>
  </g>
</svg>
