<svg id="SvgjsSvg1022" width="288" height="288" xmlns="http://www.w3.org/2000/svg" version="1.1" xmlns:xlink="http://www.w3.org/1999/xlink" xmlns:svgjs="http://svgjs.com/svgjs"><defs id="SvgjsDefs1023"></defs><g id="SvgjsG1024"><svg xmlns="http://www.w3.org/2000/svg" enable-background="new 0 0 491.52 491.52" viewBox="0 0 491.52 491.52" width="288" height="288"><rect width="92.16" height="20.48" x="71.68" y="102.4" fill="#b89769" class="color000 svgShape"></rect><rect width="51.2" height="20.48" x="184.32" y="102.4" fill="#b89769" class="color000 svgShape"></rect><rect width="92.16" height="20.48" x="71.68" y="256" fill="#b89769" class="color000 svgShape"></rect><rect width="51.2" height="20.48" x="184.32" y="256" fill="#b89769" class="color000 svgShape"></rect><rect width="61.44" height="20.48" x="71.68" y="204.8" fill="#b89769" class="color000 svgShape"></rect><rect width="30.72" height="20.48" x="296.96" y="204.8" fill="#b89769" class="color000 svgShape"></rect><rect width="122.88" height="20.48" x="153.6" y="204.8" fill="#b89769" class="color000 svgShape"></rect><rect width="40.96" height="20.48" x="204.8" y="153.6" fill="#b89769" class="color000 svgShape"></rect><rect width="112.64" height="20.48" x="71.68" y="153.6" fill="#b89769" class="color000 svgShape"></rect><rect width="153.6" height="20.48" x="266.24" y="153.6" fill="#b89769" class="color000 svgShape"></rect><rect width="153.6" height="20.48" x="71.68" y="307.2" fill="#b89769" class="color000 svgShape"></rect><polygon points="391.24 243.64 376.76 258.12 405.36 286.72 376.76 315.32 391.24 329.8 434.32 286.72" fill="#b89769" class="color000 svgShape"></polygon><polygon points="309.32 258.12 294.84 243.64 251.76 286.72 294.84 329.8 309.32 315.32 280.72 286.72" fill="#b89769" class="color000 svgShape"></polygon><rect width="110.284" height="20.48" x="287.878" y="276.562" transform="rotate(-68.217 343.04 286.802)" fill="#b89769" class="color000 svgShape"></rect><path d="M471.04,358.4V51.2H20.48v307.2H0v44.06l25.24,37.86h441.04l25.24-37.86V358.4H471.04z M40.96,71.68h409.6V358.4H40.96
			V71.68z M471.04,396.26l-15.72,23.58H36.2l-15.72-23.58v-17.38h450.56V396.26z" fill="#b89769" class="color000 svgShape"></path><rect width="20.48" height="20.48" x="276.48" y="389.12" fill="#b89769" class="color000 svgShape"></rect><rect width="20.48" height="20.48" x="235.52" y="389.12" fill="#b89769" class="color000 svgShape"></rect><rect width="20.48" height="20.48" x="194.56" y="389.12" fill="#b89769" class="color000 svgShape"></rect></svg></g></svg>