<svg width="90" height="41" viewBox="0 0 90 41" fill="none" xmlns="http://www.w3.org/2000/svg">
<path d="M13.8057 29.4415C11.859 29.4415 9.99693 29.4415 8.09724 29.4415C8.09724 28.37 8.09724 27.3365 8.09724 26.284C11.2947 26.284 14.464 26.284 17.6897 26.284C17.9813 29.1949 17.4734 31.8214 15.2728 33.9264C11.4734 37.558 2.68972 37.2736 0.432665 29.9914C-1.22251 24.6531 1.98439 19.3716 7.33549 18.5183C10.4295 18.0252 13.2697 18.6415 15.5549 20.9836C16.4954 21.9507 17.1066 23.1075 17.3512 24.5014C16.0439 24.5014 14.7838 24.5014 13.4766 24.5014C12.8841 23.136 11.812 22.2921 10.3731 21.9887C6.0847 21.0879 2.99066 24.454 4.03455 28.8441C4.72107 31.7266 7.25085 33.2437 10.4201 32.6653C12.0001 32.3809 13.1944 31.6128 13.6929 29.9819C13.7305 29.8302 13.7587 29.6785 13.8057 29.4415Z" fill="white"/>
<path d="M1.08154 -5.82556e-05C1.42951 -5.82556e-05 1.72104 -5.82556e-05 2.01258 -5.82556e-05C4.17559 -5.82556e-05 6.3386 -0.00954022 8.50161 -5.82556e-05C9.90286 0.00942371 11.2571 0.255955 12.4609 1.01451C14.5016 2.30406 15.0847 4.26682 14.8966 6.54249C14.7367 8.43889 13.8245 9.88015 12.1411 10.7904C12.0847 10.8189 12.0283 10.8568 11.9812 10.8852C11.953 10.9042 11.9436 10.9326 11.8872 11.0085C13.0533 13.0376 14.2289 15.0952 15.442 17.2097C13.9562 17.2097 12.5737 17.2097 11.1442 17.2097C10.1756 15.3797 9.20693 13.5212 8.21947 11.6438C7.10035 11.6438 5.98123 11.6438 4.81509 11.6438C4.81509 13.5023 4.81509 15.3228 4.81509 17.1907C3.5549 17.1907 2.34173 17.1907 1.10035 17.1907C1.08154 11.5016 1.08154 5.79342 1.08154 -5.82556e-05ZM4.82449 8.3251C6.30098 8.3251 7.72104 8.41044 9.1317 8.29666C10.3731 8.19236 11.0878 7.25364 11.116 5.99254C11.1442 4.55128 10.5141 3.58412 9.19753 3.45138C7.75866 3.31863 6.30098 3.43241 4.82449 3.43241C4.82449 5.05383 4.82449 6.68472 4.82449 8.3251Z" fill="white"/>
<path d="M62.6051 34.865C62.6051 36.9605 62.6051 38.9612 62.6051 40.9999C61.3825 40.9999 60.1975 40.9999 58.9844 40.9999C58.9844 34.8176 58.9844 28.6733 58.9844 22.4721C59.8308 22.4721 60.6678 22.4721 61.5612 22.4721C61.7587 22.8609 61.975 23.2781 62.2007 23.7142C62.2947 23.6668 62.3794 23.6384 62.4452 23.5815C64.7963 21.4196 68.8214 21.7704 71.1442 24.2737C74.1348 27.4976 73.5706 34.3151 68.116 35.927C66.2446 36.477 64.4483 36.2399 62.859 35.0073C62.812 34.9693 62.7555 34.9504 62.6051 34.865ZM69.2446 29.0052C69.2351 28.863 69.2163 28.6164 69.1787 28.3604C68.9342 26.7959 67.7869 25.6391 66.3104 25.4589C64.6646 25.2598 63.2822 25.9994 62.6803 27.4596C62.1819 28.6733 62.2101 29.8965 62.7931 31.0817C63.1317 31.7644 63.6584 32.2765 64.3637 32.5799C66.8276 33.6608 69.301 31.9067 69.2446 29.0052Z" fill="white"/>
<path d="M57.0754 17.2191C56.8685 16.8209 56.6522 16.4036 56.4265 15.958C56.3324 16.0054 56.2572 16.0244 56.2102 16.0718C53.8873 18.3 49.4578 18.044 47.0597 14.896C44.8309 11.9661 44.9719 5.85022 50.0409 3.92538C52.2227 3.10045 54.3293 3.36595 56.1631 4.93995C56.2196 4.98736 56.2854 5.03477 56.3982 5.12011C56.6334 4.67446 56.8497 4.24777 57.0754 3.80212C57.9218 3.80212 58.7587 3.80212 59.6333 3.80212C59.6333 8.26812 59.6333 12.7341 59.6333 17.2286C58.787 17.2191 57.95 17.2191 57.0754 17.2191ZM52.8246 14.2228C54.8559 14.2323 56.2666 12.7246 56.276 10.5533C56.2854 8.32501 54.8653 6.77945 52.8152 6.77945C50.812 6.77945 49.4014 8.31553 49.3826 10.4869C49.3826 12.7057 50.7744 14.2133 52.8246 14.2228Z" fill="white"/>
<path d="M29.4732 11.5585C26.1722 11.5585 22.9183 11.5585 19.6644 11.5585C19.6926 12.848 20.6613 13.9764 21.9779 14.2987C23.7365 14.7349 25.0155 14.2324 25.8149 12.7437C26.3885 12.7437 26.9904 12.7437 27.6017 12.7437C28.1942 12.7437 28.7867 12.7437 29.4167 12.7437C29.2381 13.9669 28.6926 14.9246 27.865 15.7495C25.1378 18.4518 18.8744 18.3381 16.6738 13.7772C14.934 10.1551 16.4011 5.62275 19.9183 4.09615C22.702 2.88246 26.7177 3.37553 28.5986 6.62784C29.4732 8.14495 29.6048 9.78533 29.4732 11.5585ZM25.8431 9.02677C25.8431 7.68034 24.4983 6.56146 22.8619 6.53302C21.1503 6.49509 19.7961 7.57603 19.7396 9.02677C21.771 9.02677 23.8023 9.02677 25.8431 9.02677Z" fill="white"/>
<path d="M35.9627 22.1497C38.3702 22.2446 40.7589 23.3255 41.9909 26.1227C43.0818 28.607 42.9407 31.1197 41.3326 33.3669C39.6868 35.6521 37.2981 36.4011 34.6084 36.1262C31.157 35.7753 28.7871 33.5281 28.3357 30.3422C27.6774 25.7244 30.7996 22.1308 35.9627 22.1497ZM38.925 29.4034C38.925 27.7631 38.3702 26.6252 37.3921 25.9899C35.878 25.0133 33.7714 25.3357 32.7275 26.7106C31.552 28.2561 31.7213 30.8068 33.1319 32.0299C34.2793 33.0256 35.6147 33.1393 36.9595 32.5515C38.389 31.9162 38.8874 30.6551 38.925 29.4034Z" fill="white"/>
<path d="M31.3262 3.80218C32.1726 3.80218 33.0002 3.80218 33.8842 3.80218C34.0911 4.20042 34.3074 4.63659 34.5613 5.12017C34.7023 4.9969 34.8246 4.88312 34.9469 4.77882C37.7212 2.3704 42.461 3.44186 43.7682 6.81744C44.0127 7.45273 44.1632 8.16388 44.1726 8.84658C44.2196 11.53 44.1914 14.2134 44.1914 16.9062C44.1914 17.0011 44.1726 17.0864 44.1632 17.2192C42.9688 17.2192 41.7933 17.2192 40.5425 17.2192C40.5425 17.0295 40.5425 16.8399 40.5425 16.6597C40.5425 14.4599 40.5425 12.2696 40.5425 10.0698C40.5425 9.80426 40.5425 9.52928 40.5143 9.26379C40.3356 7.6803 39.2541 6.74159 37.6741 6.77951C36.0848 6.81744 35.0221 7.80356 34.9939 9.40602C34.9469 11.786 34.9751 14.1754 34.9657 16.5649C34.9657 16.764 34.9657 16.9726 34.9657 17.2097C33.7431 17.2097 32.5581 17.2097 31.345 17.2097C31.3262 12.7437 31.3262 8.28714 31.3262 3.80218Z" fill="white"/>
<path d="M61.8905 3.80225C63.0849 3.80225 64.2698 3.80225 65.5206 3.80225C65.5206 4.01085 65.5206 4.19101 65.5206 4.38065C65.5206 6.60891 65.5206 8.83717 65.5206 11.0654C65.5206 11.2551 65.5206 11.4447 65.53 11.6343C65.624 13.8152 67.7306 14.9815 69.6209 13.9005C70.2792 13.5213 70.6272 12.9144 70.74 12.1748C70.7964 11.805 70.8059 11.4163 70.8059 11.0465C70.8153 8.83717 70.8059 6.62787 70.8059 4.40909C70.8059 4.21945 70.8059 4.0393 70.8059 3.82121C72.0284 3.82121 73.1946 3.82121 74.4265 3.82121C74.4359 3.99189 74.4547 4.17204 74.4547 4.3522C74.4547 6.7701 74.4547 9.188 74.4547 11.6059C74.4547 14.7918 72.6773 16.9253 69.5551 17.4373C67.9187 17.7028 66.3012 17.5795 64.7871 16.8305C62.9532 15.9202 61.9375 14.3936 61.8811 12.355C61.8059 9.57676 61.8529 6.79855 61.8529 4.01085C61.8529 3.93499 61.8811 3.8781 61.8905 3.80225Z" fill="white"/>
<path d="M44.1159 22.4531C45.3197 22.4531 46.4858 22.4531 47.7366 22.4531C47.7366 22.6522 47.7366 22.8419 47.7366 23.022C47.7366 25.2313 47.7366 27.4501 47.7366 29.6594C47.7366 29.9723 47.7366 30.2947 47.7742 30.6076C47.9059 31.9825 48.8463 32.8359 50.2664 32.8833C51.7805 32.9307 52.7491 32.1627 52.956 30.7593C53.003 30.4464 53.0218 30.1335 53.0218 29.8206C53.0312 27.5734 53.0218 25.3356 53.0218 23.0884C53.0218 22.8988 53.0218 22.7186 53.0218 22.4816C54.2444 22.4816 55.42 22.4816 56.6801 22.4816C56.6801 22.6617 56.6801 22.8514 56.6801 23.0315C56.6801 25.4779 56.6801 27.9337 56.6801 30.3801C56.6801 33.4427 54.7711 35.6615 51.7429 36.0882C50.0971 36.3253 48.4795 36.2209 46.9748 35.4529C45.1504 34.5237 44.1441 32.9971 44.0971 30.949C44.0313 28.1992 44.0783 25.4494 44.0783 22.6997C44.0783 22.6333 44.0971 22.5764 44.1159 22.4531Z" fill="white"/>
<path d="M82.2698 0.0378418C83.483 0.0378418 84.6491 0.0378418 85.8811 0.0378418C85.8811 1.26101 85.8811 2.48419 85.8811 3.75477C87.1883 3.75477 88.4391 3.75477 89.718 3.75477C89.718 4.79779 89.718 5.78391 89.718 6.83641C88.4861 6.83641 87.2447 6.83641 85.9563 6.83641C85.9375 7.05449 85.9093 7.2062 85.9093 7.34843C85.9093 8.8371 85.8999 10.3163 85.9093 11.805C85.9187 13.3315 86.4359 13.8436 87.95 13.8625C88.6177 13.872 89.2855 13.8625 89.9908 13.8625C89.9908 15.0004 89.9908 16.0813 89.9908 17.1623C89.9626 17.1907 89.9437 17.2286 89.9155 17.2286C88.4014 17.1623 86.8685 17.2192 85.3827 16.9821C83.577 16.6976 82.6178 15.4365 82.3451 13.6445C82.2698 13.1135 82.2322 12.573 82.2322 12.042C82.2228 8.22077 82.2322 4.39954 82.2322 0.578313C82.251 0.398156 82.2604 0.227481 82.2698 0.0378418Z" fill="white"/>
<path d="M22.9469 35.8701C21.6961 35.8701 20.5299 35.8701 19.3262 35.8701C19.3262 31.3947 19.3262 26.9476 19.3262 22.4626C20.323 22.4626 21.3011 22.4626 22.3262 22.4626C22.5049 23.041 22.6835 23.6384 22.8716 24.2263C23.6146 23.7996 24.3387 23.3255 25.1005 22.9462C25.881 22.5575 26.718 22.3868 27.6302 22.4247C27.6302 23.6005 27.6302 24.7478 27.6302 25.933C27.2353 25.9805 26.8309 26.0089 26.4359 26.0848C24.2635 26.502 22.9657 28.0665 22.9469 30.3042C22.9281 31.9731 22.9469 33.6514 22.9469 35.3297C22.9469 35.5003 22.9469 35.671 22.9469 35.8701Z" fill="white"/>
<path d="M76.5801 0.00939941C77.8121 0.00939941 79.0064 0.00939941 80.229 0.00939941C80.229 5.75547 80.229 11.4826 80.229 17.2381C79.0064 17.2381 77.8026 17.2381 76.5801 17.2381C76.5801 11.4921 76.5801 5.76495 76.5801 0.00939941Z" fill="white"/>
</svg>
