<svg width="739" height="216" viewBox="0 0 739 216" fill="none" xmlns="http://www.w3.org/2000/svg">
<path d="M9.3244 8.97037C46.6432 53.3602 99.2251 60.0562 157.143 30.166C212.317 1.69174 254.939 4.92982 298.399 50.4209" stroke="#B89769" stroke-width="22"/>
<path d="M153 213H30V191H153V213Z" fill="white"/>
<path d="M78.1328 185.444V68.444H105.133V185.444H78.1328Z" fill="white"/>
<path d="M219 213V68H246V213H219Z" fill="white"/>
<path d="M431.133 190.437V213H322.458V68.1H428.235V90.663H349.368V128.337H419.334V150.486H349.368V190.437H431.133ZM555.938 213L526.337 170.565C525.095 170.703 523.232 170.772 520.748 170.772H488.042V213H461.132V68.1H520.748C533.306 68.1 544.208 70.17 553.454 74.31C562.838 78.45 570.014 84.384 574.982 92.112C579.95 99.84 582.434 109.017 582.434 119.643C582.434 130.545 579.743 139.929 574.361 147.795C569.117 155.661 561.527 161.526 551.591 165.39L584.918 213H555.938ZM555.317 119.643C555.317 110.397 552.281 103.29 546.209 98.322C540.137 93.354 531.236 90.87 519.506 90.87H488.042V148.623H519.506C531.236 148.623 540.137 146.139 546.209 141.171C552.281 136.065 555.317 128.889 555.317 119.643ZM674.848 215.07C654.838 215.07 639.244 209.481 628.066 198.303C616.888 186.987 611.299 170.841 611.299 149.865V68.1H638.209V148.83C638.209 177.258 650.491 191.472 675.055 191.472C699.481 191.472 711.694 177.258 711.694 148.83V68.1H738.19V149.865C738.19 170.841 732.601 186.987 721.423 198.303C710.383 209.481 694.858 215.07 674.848 215.07Z" fill="white"/>
</svg>
